<?xml version="1.0" encoding="UTF-8"?>
<!DOCTYPE svg PUBLIC "-//W3C//DTD SVG 1.1//EN" "http://www.w3.org/Graphics/SVG/1.1/DTD/svg11.dtd">
<!-- Creator: CorelDRAW 2019 (64-Bit) -->
<svg xmlns="http://www.w3.org/2000/svg" xml:space="preserve" width="18px" height="16px" version="1.1" style="shape-rendering:geometricPrecision; text-rendering:geometricPrecision; image-rendering:optimizeQuality; fill-rule:evenodd; clip-rule:evenodd"
viewBox="0 0 0.46 0.4"
 xmlns:xlink="http://www.w3.org/1999/xlink">
 <defs>
  <style type="text/css">
   <![CDATA[
    .fil0 {fill:#373435}
   ]]>
  </style>
 </defs>
 <g id="Layer_x0020_1">
  <metadata id="CorelCorpID_0Corel-Layer"/>
  <path class="fil0" d="M0.46 0.04l0 0 0 0c-0.01,0.01 -0.01,0.01 -0.01,0.01l-0.17 0.15 0.17 0.15c0,0 0,0 0.01,0.01l0 0 0 0 0 0 0 0c-0.01,0 -0.01,0 -0.01,0.01l-0.03 0.03c-0.01,0 -0.02,0 -0.03,0l-0.16 -0.15 -0.17 0.15c0,0 -0.02,0 -0.02,0l-0.04 -0.03c0,-0.01 0,-0.01 0,-0.01l0 0c0,-0.01 0,-0.01 0,-0.01l0.17 -0.15 -0.17 -0.15c0,0 0,0 0,-0.01l0 0c0,0 0,0 0,-0.01l0.04 -0.03c0,0 0.02,0 0.02,0l0.17 0.15 0.16 -0.15c0.01,0 0.02,0 0.03,0l0.03 0.03c0,0.01 0,0.01 0.01,0.01z"/>
 </g>
</svg>
